<?xml version="1.0" encoding="UTF-8"?>
<svg version="1.1" xmlns="http://www.w3.org/2000/svg" width="56" height="56">
<path d="M0 0 C3.42754467 0.58110671 5.04538661 1.68553624 7.453125 4.16015625 C8.38125 5.1027832 8.38125 5.1027832 9.328125 6.06445312 C9.96234375 6.72380859 10.5965625 7.38316406 11.25 8.0625 C12.22453125 9.05733398 12.22453125 9.05733398 13.21875 10.07226562 C14.8194676 11.70829317 16.41276193 13.35090912 18 15 C15.97885812 19.44953329 12.99028627 22.3409448 9.5625 25.75 C8.97662109 26.35199219 8.39074219 26.95398438 7.78710938 27.57421875 C7.21927734 28.14269531 6.65144531 28.71117188 6.06640625 29.296875 C5.55021729 29.81604492 5.03402832 30.33521484 4.50219727 30.87011719 C3 32 3 32 0 32 C1 27 1 27 9 19 C-2.22 18.67 -13.44 18.34 -25 18 C-25 16.68 -25 15.36 -25 14 C-13.78 13.67 -2.56 13.34 9 13 C6.03 10.03 3.06 7.06 0 4 C0 2.68 0 1.36 0 0 Z " fill="#282C31" transform="translate(32,12)"/>
</svg>
