<?xml version="1.0" encoding="UTF-8"?>
<svg xmlns="http://www.w3.org/2000/svg" xmlns:xlink="http://www.w3.org/1999/xlink" width="35px" height="35px" viewBox="0 0 35 35" version="1.1">
<defs>
<clipPath id="clip1">
  <path d="M 1 2 L 34 2 L 34 35 L 1 35 Z M 1 2 "/>
</clipPath>
<clipPath id="clip2">
  <path d="M 17.707031 2.117188 C 8.816406 2.117188 1.605469 9.324219 1.605469 18.214844 C 1.605469 27.105469 8.816406 34.316406 17.707031 34.316406 C 26.597656 34.316406 33.808594 27.105469 33.808594 18.214844 C 33.808594 9.324219 26.597656 2.117188 17.707031 2.117188 Z M 17.707031 2.117188 "/>
</clipPath>
<linearGradient id="linear0" gradientUnits="userSpaceOnUse" x1="0.107" y1="1.237" x2="0.131" y2="1.237" gradientTransform="matrix(64.398438,-64.398438,64.398438,64.398438,-46.691406,18.214844)">
<stop offset="0" style="stop-color:rgb(0%,47.843137%,70.980392%);stop-opacity:1;"/>
<stop offset="1" style="stop-color:rgb(0%,27.45098%,89.803922%);stop-opacity:1;"/>
</linearGradient>
</defs>
<g id="surface1">
<g clip-path="url(#clip1)" clip-rule="nonzero">
<g clip-path="url(#clip2)" clip-rule="nonzero">
<path style=" stroke:none;fill-rule:nonzero;fill:url(#linear0);" d="M -14.492188 18.214844 L 17.707031 -13.984375 L 49.90625 18.214844 L 17.707031 50.414062 Z M -14.492188 18.214844 "/>
</g>
</g>
<path style=" stroke:none;fill-rule:nonzero;fill:rgb(100%,100%,100%);fill-opacity:1;" d="M 11.375 14.933594 L 14.15625 14.933594 L 14.15625 23.675781 L 11.375 23.675781 Z M 12.765625 10.59375 C 13.628906 10.617188 14.316406 11.332031 14.304688 12.195312 C 14.289062 13.0625 13.578125 13.753906 12.710938 13.746094 C 11.847656 13.738281 11.148438 13.03125 11.152344 12.164062 C 11.160156 11.285156 11.882812 10.582031 12.761719 10.589844 "/>
<path style=" stroke:none;fill-rule:nonzero;fill:rgb(100%,100%,100%);fill-opacity:1;" d="M 15.898438 14.933594 L 18.558594 14.933594 L 18.558594 16.128906 L 18.59375 16.128906 C 19.148438 15.214844 20.15625 14.675781 21.222656 14.71875 C 24.035156 14.71875 24.550781 16.527344 24.550781 18.882812 L 24.550781 23.675781 L 21.78125 23.675781 L 21.78125 19.425781 C 21.78125 18.410156 21.757812 17.109375 20.335938 17.109375 C 18.890625 17.109375 18.671875 18.214844 18.671875 19.351562 L 18.671875 23.675781 L 15.898438 23.675781 Z M 15.898438 14.933594 "/>
</g>
</svg>
