<svg width="512" height="512" viewBox="0 0 512 512" fill="none" xmlns="http://www.w3.org/2000/svg">
<g clip-path="url(#clip0_141_2)">
<path d="M280 8.68179e-05C408.1 8.68179e-05 512 103.9 512 232C512 245.3 501.3 256 488 256C474.7 256 464 245.3 464 232C464 130.4 381.6 48.0001 280 48.0001C266.7 48.0001 256 37.3001 256 24.0001C256 10.7001 266.7 8.68179e-05 280 8.68179e-05ZM288 192C296.487 192 304.626 195.372 310.627 201.373C316.629 207.374 320 215.513 320 224C320 232.487 316.629 240.626 310.627 246.628C304.626 252.629 296.487 256 288 256C279.513 256 271.374 252.629 265.373 246.628C259.371 240.626 256 232.487 256 224C256 215.513 259.371 207.374 265.373 201.373C271.374 195.372 279.513 192 288 192ZM256 120C256 106.7 266.7 96.0001 280 96.0001C355.1 96.0001 416 156.9 416 232C416 245.3 405.3 256 392 256C378.7 256 368 245.3 368 232C368 183.4 328.6 144 280 144C266.7 144 256 133.3 256 120ZM117.5 1.40009C136.9 -3.89991 157.2 6.00009 164.9 24.6001L204.9 120.6C211.7 136.9 207 155.8 193.3 166.9L144 207.3C177.3 277.7 234.3 334.7 304.7 368L345 318.7C356.2 305 375 300.3 391.3 307.1L487.3 347.1C505.9 354.8 515.8 375.1 510.5 394.5L486.5 482.5C481.8 499.9 466 512 448 512C200.6 512 0 311.4 0 64.0001C0 46.0001 12.1 30.2001 29.5 25.4001L117.5 1.40009Z" fill="#7E7E7E"/>
</g>
<defs>
<clipPath id="clip0_141_2">
<rect width="512" height="512" fill="white"/>
</clipPath>
</defs>
</svg>
