<?xml version="1.0" encoding="UTF-8"?>
<svg xmlns="http://www.w3.org/2000/svg" xmlns:xlink="http://www.w3.org/1999/xlink" width="35px" height="35px" viewBox="0 0 35 35" version="1.1">
<g id="surface1">
<path style=" stroke:none;fill-rule:nonzero;fill:rgb(0%,0%,0%);fill-opacity:1;" d="M 0 18.761719 C 0 17.9375 0 17.128906 0 16.304688 C 0.0234375 16.21875 0.0429688 16.128906 0.0664062 16.039062 C 0.175781 15.273438 0.253906 14.507812 0.421875 13.75 C 2.023438 6.34375 8.464844 0.511719 16.539062 0.078125 C 19.992188 -0.109375 23.226562 0.675781 26.234375 2.398438 C 32.480469 5.976562 35.945312 13.296875 34.722656 20.394531 C 34.042969 24.335938 32.234375 27.667969 29.300781 30.378906 C 26.8125 32.679688 23.890625 34.132812 20.550781 34.722656 C 19.9375 34.832031 19.316406 34.898438 18.707031 34.988281 L 16.25 34.988281 C 15.863281 34.933594 15.460938 34.890625 15.074219 34.832031 C 11.683594 34.332031 8.675781 33 6.085938 30.757812 C 2.964844 28.070312 1.011719 24.679688 0.265625 20.605469 C 0.15625 19.992188 0.0898438 19.371094 0 18.761719 Z M 27.511719 27.78125 C 24.769531 23.792969 22.082031 19.871094 19.382812 15.949219 C 21.871094 13.0625 24.335938 10.1875 26.859375 7.253906 C 26.335938 7.253906 25.902344 7.277344 25.46875 7.253906 C 25.191406 7.242188 25.003906 7.332031 24.824219 7.542969 C 23.226562 9.417969 21.617188 11.285156 20.003906 13.152344 C 19.539062 13.695312 19.0625 14.238281 18.582031 14.796875 C 18.527344 14.730469 18.503906 14.695312 18.484375 14.652344 C 16.851562 12.273438 15.207031 9.898438 13.585938 7.519531 C 13.453125 7.332031 13.328125 7.242188 13.097656 7.242188 C 11.320312 7.242188 9.550781 7.242188 7.773438 7.242188 C 7.675781 7.242188 7.585938 7.253906 7.441406 7.265625 C 10.0625 11.085938 12.664062 14.863281 15.273438 18.648438 C 12.664062 21.683594 10.074219 24.691406 7.441406 27.757812 C 7.988281 27.757812 8.453125 27.757812 8.917969 27.757812 C 9.128906 27.757812 9.273438 27.691406 9.40625 27.535156 C 11.175781 25.46875 12.953125 23.414062 14.71875 21.359375 C 15.160156 20.847656 15.605469 20.339844 16.0625 19.804688 C 16.152344 19.925781 16.21875 20.027344 16.285156 20.117188 C 17.949219 22.546875 19.628906 24.980469 21.292969 27.425781 C 21.472656 27.679688 21.648438 27.769531 21.960938 27.769531 C 23.324219 27.757812 24.691406 27.769531 26.058594 27.769531 C 26.523438 27.769531 26.992188 27.769531 27.523438 27.769531 Z M 27.511719 27.78125 "/>
<path style=" stroke:none;fill-rule:nonzero;fill:rgb(100%,100%,100%);fill-opacity:1;" d="M 18.707031 35 C 19.316406 34.910156 19.9375 34.832031 20.550781 34.734375 C 23.890625 34.144531 26.8125 32.691406 29.300781 30.390625 C 32.234375 27.679688 34.042969 24.335938 34.722656 20.40625 C 35.945312 13.316406 32.480469 5.988281 26.234375 2.410156 C 23.226562 0.6875 19.992188 -0.101562 16.539062 0.078125 C 8.464844 0.511719 2.023438 6.34375 0.410156 13.761719 C 0.246094 14.519531 0.175781 15.285156 0.0546875 16.050781 C 0.0429688 16.140625 0.0117188 16.226562 -0.0117188 16.316406 L -0.0117188 0 L 34.988281 0 L 34.988281 35 L 18.683594 35 Z M 18.707031 35 "/>
<path style=" stroke:none;fill-rule:nonzero;fill:rgb(100%,100%,100%);fill-opacity:1;" d="M 0 18.761719 C 0.0898438 19.371094 0.15625 19.992188 0.265625 20.605469 C 1.011719 24.679688 2.953125 28.058594 6.074219 30.769531 C 8.664062 33.011719 11.675781 34.34375 15.0625 34.84375 C 15.449219 34.898438 15.851562 34.945312 16.238281 35 L 0 35 C 0 29.589844 0 24.179688 0 18.761719 Z M 0 18.761719 "/>
<path style=" stroke:none;fill-rule:nonzero;fill:rgb(100%,100%,100%);fill-opacity:1;" d="M 27.511719 27.78125 C 26.96875 27.78125 26.515625 27.78125 26.046875 27.78125 C 24.679688 27.78125 23.316406 27.78125 21.949219 27.78125 C 21.648438 27.78125 21.460938 27.703125 21.28125 27.4375 C 19.628906 24.992188 17.949219 22.558594 16.273438 20.125 C 16.207031 20.039062 16.140625 19.9375 16.050781 19.816406 C 15.59375 20.339844 15.152344 20.847656 14.707031 21.371094 C 12.929688 23.425781 11.164062 25.492188 9.398438 27.546875 C 9.253906 27.714844 9.121094 27.78125 8.910156 27.769531 C 8.441406 27.757812 7.988281 27.769531 7.429688 27.769531 C 10.074219 24.703125 12.664062 21.691406 15.261719 18.660156 C 12.664062 14.875 10.0625 11.097656 7.429688 7.277344 C 7.574219 7.265625 7.675781 7.253906 7.765625 7.253906 C 9.542969 7.253906 11.308594 7.253906 13.085938 7.253906 C 13.316406 7.253906 13.453125 7.34375 13.574219 7.53125 C 15.207031 9.90625 16.839844 12.285156 18.472656 14.660156 C 18.492188 14.695312 18.527344 14.738281 18.570312 14.804688 C 19.050781 14.25 19.527344 13.707031 19.992188 13.164062 C 21.605469 11.296875 23.214844 9.417969 24.8125 7.554688 C 24.992188 7.34375 25.179688 7.253906 25.457031 7.265625 C 25.890625 7.285156 26.3125 7.265625 26.847656 7.265625 C 24.324219 10.195312 21.847656 13.074219 19.371094 15.960938 C 22.058594 19.882812 24.757812 23.804688 27.503906 27.792969 Z M 9.875 8.597656 C 9.90625 8.675781 9.90625 8.695312 9.917969 8.71875 C 14.027344 14.59375 18.128906 20.460938 22.25 26.324219 C 22.328125 26.425781 22.503906 26.515625 22.636719 26.515625 C 23.347656 26.535156 24.070312 26.515625 24.78125 26.515625 C 24.859375 26.515625 24.949219 26.492188 25.058594 26.480469 C 24.96875 26.347656 24.914062 26.257812 24.847656 26.160156 C 23.4375 24.148438 22.039062 22.136719 20.625 20.125 C 17.996094 16.371094 15.371094 12.605469 12.742188 8.851562 C 12.664062 8.742188 12.53125 8.597656 12.429688 8.597656 C 11.597656 8.574219 10.753906 8.585938 9.886719 8.585938 Z M 9.875 8.597656 "/>
<path style=" stroke:none;fill-rule:nonzero;fill:rgb(0%,0%,0%);fill-opacity:1;" d="M 9.875 8.597656 C 10.742188 8.597656 11.585938 8.597656 12.417969 8.609375 C 12.53125 8.609375 12.664062 8.753906 12.730469 8.863281 C 15.363281 12.617188 17.996094 16.382812 20.617188 20.136719 C 22.027344 22.148438 23.425781 24.160156 24.835938 26.167969 C 24.902344 26.257812 24.957031 26.359375 25.046875 26.492188 C 24.9375 26.503906 24.847656 26.523438 24.769531 26.523438 C 24.058594 26.523438 23.335938 26.523438 22.625 26.523438 C 22.492188 26.523438 22.316406 26.4375 22.238281 26.335938 C 18.128906 20.472656 14.019531 14.59375 9.90625 8.730469 C 9.898438 8.707031 9.898438 8.6875 9.863281 8.609375 Z M 9.875 8.597656 "/>
</g>
</svg>
